<?xml version="1.0" encoding="utf-8"?>
<!-- Generator: Adobe Illustrator 25.0.0, SVG Export Plug-In . SVG Version: 6.00 Build 0)  -->
<svg version="1.1" id="Layer_1" xmlns="http://www.w3.org/2000/svg" xmlns:xlink="http://www.w3.org/1999/xlink" x="0px" y="0px"
	 viewBox="0 0 250 80" style="enable-background:new 0 0 250 80;" xml:space="preserve">
<style type="text/css">
	.st0{fill:#FFFFFF;}
	.st1{fill:#D73F09;}
</style>
<g>
	<path d="M89.4,63c0,5.4-3.6,8.1-8.3,8.1c-5,0-8.4-2-8.4-7.7V51.1L70,50.3l0.3-1.2h8.3l0.3,1.2l-2.8,0.8v11.8c0,4.2,1.8,6.2,5.3,6.2
		c3.4,0,5.8-2,5.8-6.4V51.1l-2.8-0.8l0.3-1.2h7.1l0.3,1.2l-2.8,0.8L89.4,63L89.4,63z"/>
	<path d="M108.4,69.7l-0.5,1.1h-7.1v-1l1.7-0.6V60c0-2.4-1.5-2.8-2.7-2.8c-1.5,0-2.9,0.7-3.8,1.5V69l2.6,0.7l-0.5,1.1h-7.1v-1
		l1.7-0.6V58.4l-1.8-2V56l4.4-1.7h0.6l-0.1,3.1h0.2c1.5-2.4,3.7-3.1,5.4-3.1c2.1,0,4.4,1.3,4.4,5.1V69L108.4,69.7z"/>
	<path d="M116.4,69.7l-0.5,1.1h-7.1v-1l1.7-0.6V58.4l-1.8-2V56l4.4-1.7h0.6V69L116.4,69.7z M112.2,47.2c1.3,0,2.3,1,2.3,2.3
		s-1,2.3-2.3,2.3s-2.3-1-2.3-2.3S110.9,47.2,112.2,47.2z"/>
	<path d="M127.6,56.6l-2.4-0.8l0.2-1.1h6l0.2,1.1l-1.7,0.7l-5.6,14.3h-1.8l-5.9-14.1l-1.6-1l0.3-1h6.8l0.3,1.1l-2.4,0.6l2.6,6.5
		c0.9,2.2,1.3,4.5,1.3,4.5h0.2c0,0,0.5-2.2,1.4-4.5L127.6,56.6z"/>
	<path d="M138.6,68.8c1.8,0,3.1-0.5,4.6-1.5l0.5,0.8c-1.3,2-3.2,3.1-6.1,3.1c-3.9,0-7.1-2.7-7.1-8.3c0-5.5,3.5-8.6,7.6-8.6
		c3.3,0,5.7,2.1,5.7,5.8c0,0.6,0,1.2-0.2,1.9h-10C133.6,66.3,135.5,68.8,138.6,68.8z M133.7,60.5h6.8c0-0.3,0-0.7,0-1
		c0-2.3-0.9-3.5-2.8-3.5C135.9,55.9,134.2,57.3,133.7,60.5z"/>
	<path d="M152.7,69.7l-0.5,1.1h-7.8v-1l1.7-0.6V58.4l-1.8-2V56l4.4-1.7h0.6l-0.1,3.8h0.1c0.9-2.1,2.6-3.8,4.7-3.8
		c1.7,0,2.7,1,2.7,2.4c0,1.5-1,2.2-2.1,2.2c-1.3,0-2.1-1-2.1-2.2c-1.3,0.5-2.2,1.6-3.2,3V69L152.7,69.7z"/>
	<path d="M157.8,65.6c1.6,3.3,3,4.2,5,4.2c1.7,0,2.8-0.6,2.8-2.3c0-1.4-0.8-2.2-2.7-2.8l-2.1-0.7c-2.2-0.8-3.6-2.1-3.6-4.9
		c0-3.2,2.3-4.7,5.4-4.7c0.7,0,2.2,0.3,2.9,0.7l1.8-0.6l0.3,4.7l-0.8,0.3c-1.6-2.7-2.9-3.5-4.5-3.5c-1.6,0-2.5,0.9-2.5,2.2
		s0.7,2.2,2.5,2.8l2.1,0.7c2.4,0.8,3.9,2.1,3.9,4.9c0,3.3-2.5,4.7-5.8,4.7c-1.5,0-2.8-0.4-3.6-0.8l-1.7,0.8l-0.3-5.3L157.8,65.6z"/>
	<path d="M176.8,69.7l-0.5,1.1h-7.1v-1l1.7-0.6V58.4l-1.8-2V56l4.4-1.7h0.6V69L176.8,69.7z M172.6,47.2c1.3,0,2.3,1,2.3,2.3
		s-1,2.3-2.3,2.3s-2.3-1-2.3-2.3C170.3,48.2,171.3,47.2,172.6,47.2z"/>
	<path d="M176,55.4l4.6-5.1h0.7v4.4h5.4l-0.3,1.7h-5.1v9.6c0,2.1,0.9,2.9,2.4,2.9c1,0,1.9-0.2,3-0.8l0.4,0.9c-1.2,1.3-2.6,2.1-5,2.1
		c-2.5,0-4-1.3-4-4.6V56.4H176L176,55.4L176,55.4z"/>
	<path d="M186.8,56.7l-1.6-1l0.3-1h6.8l0.3,1.1l-2.4,0.6l2.6,6.9c1,2.8,1.2,4.7,1.2,4.7h0.1c0,0,0.6-2.4,1.4-4.7l2.2-6.7l-2.4-0.8
		l0.2-1.1h5.9l0.2,1.1l-1.7,0.7l-5.1,14c-2.3,6.3-4.3,8.3-7.3,8.3c-1.9,0-2.9-1.1-2.9-2.5c0-1.3,0.8-2.1,2.1-2.1
		c1.1,0,1.9,0.8,1.9,1.9c0,0.6-0.2,1-0.4,1.3c1.5,0,3.4-2.7,4.4-5.9L186.8,56.7z"/>
</g>
<path class="st0" d="M63.8,28.4c-0.5-2.6-1.1-4.8-2-6.6c-0.8-1.5-1.7-2.8-2.8-3.7c-1.6-1.3-3.5-2-5.5-2c-1,0-1.9,0.1-2.8,0.4
	l2.9-6.3l-6-4.3h-4.3c-0.7,0-1.5-0.6-2.6-1.3c-1.8-1.2-4.3-3-8.5-3c-3.5,0-6.3,1-8.5,3c0,0-14.3,14-14.4,14.1l0,0
	c-0.8,0.9-1.6,1.9-2.2,3.1c-0.9,1.8-1.6,3.9-2,6.6c-1,5.6-0.8,11.1,0.6,16.1c1.4,5.3,4,10.5,7.7,15.2c4.5,5.8,10.7,11.1,18.4,15.7
	l2.6,1.6l2.6-1.6c7.7-4.6,13.9-9.9,18.4-15.7c3.7-4.8,6.3-9.9,7.7-15.2C64.6,39.5,64.8,34,63.8,28.4z"/>
<g>
	<path d="M30.3,22.5h-8l-0.7,12c0.4,0.1,0.9,0.2,1.3,0.4L30.3,22.5z"/>
	<path d="M24.1,49.8C24.1,49.8,24.1,49.8,24.1,49.8l-0.1,1c0.1,0.1,0.3,0.1,0.4,0.2c0.6,0.2,1.4,0.4,2.5,0.4c1.2,0,2-0.2,2.6-0.5v-1
		c-0.7,0.3-1.4,0.6-2.6,0.6c-1.2,0-1.9-0.2-2.5-0.5C24.3,49.9,24.2,49.8,24.1,49.8z"/>
	<path d="M24.4,53.5c-0.1,0-0.2-0.1-0.3-0.2c0,0,0,0-0.1,0v1c0.1,0.1,0.3,0.1,0.4,0.2c0.6,0.2,1.4,0.4,2.5,0.4c0.9,0,1.5-0.1,2-0.3
		v-0.9c-0.5,0.2-1.1,0.3-2,0.3C25.7,54,25,53.8,24.4,53.5z"/>
	<path d="M24.4,57.1c-0.1,0-0.2-0.1-0.3-0.2c0,0,0,0-0.1,0v1c0.1,0.1,0.3,0.1,0.4,0.2c0.6,0.2,1.4,0.4,2.5,0.4c0.5,0,0.8,0,1.2-0.1
		v-0.9c-0.3,0.1-0.7,0.1-1.2,0.1C25.7,57.6,25,57.4,24.4,57.1z"/>
	<path d="M33.4,5.9c0.7,0.1,1.3,0.4,1.9,0.7c0.6,0.3,1.2,0.7,1.7,1.1c0.8,0.6,1.7,1.3,2.7,1.8V8c-0.7-0.4-1.3-0.8-2-1.3
		c-0.6-0.4-1.3-0.7-2-1c-0.7-0.3-1.4-0.5-2.2-0.6c-0.7-0.1-1.5-0.1-2.2,0c0,0-0.1,0-0.1,0v0.6c0,0,0.1,0,0.1,0
		C32.1,5.8,32.8,5.8,33.4,5.9z"/>
	<path d="M63,28.6c-0.4-2.6-1.1-4.6-1.9-6.4c-0.7-1.4-1.6-2.6-2.6-3.5C57,17.6,55.3,17,53.5,17c-2.4,0-4.6,0.9-6.1,2.5l-2.7-2.9
		l0.4-0.9h3.6l-0.4,0.9h1.4l2.9-6.1l-5.2-3.7h-4c-1,0-1.9-0.6-3.1-1.4c-1.8-1.2-4.1-2.8-8-2.8c-3.3,0-5.9,0.9-7.9,2.8l-9.2,9l0,0
		c0,0-5.2,5-5.2,5.1c-0.8,0.8-1.4,1.7-2,2.9c-0.8,1.7-1.5,3.8-1.9,6.4C5.1,34,5.3,39.4,6.6,44.3c1.4,5.2,3.9,10.2,7.6,14.9
		c4.5,5.7,10.6,11,18.2,15.5l2.2,1.3l2.2-1.3c7.6-4.6,13.7-9.8,18.2-15.5c3.6-4.7,6.2-9.7,7.6-14.9C63.7,39.4,63.9,34,63,28.6z
		 M25.3,6.2c0.7-0.6,2.6-2.4,7.1-2.4c3.5,0,5.5,1.4,7.3,2.6C40.9,7.3,42,8,43.4,8h3.7l4,2.8l-1.7,3.5h-3.6c-0.5,0-1-0.2-1.5-0.6
		c-0.5-0.4-0.8-1.1-0.9-1.8h-0.6c0,0.4,0,0.9,0.2,1.3c0.1,0.4,0.4,0.8,0.7,1.2c0.1,0.1,0.3,0.3,0.5,0.4l-0.9,1.9l2.5,2.6h-1.9
		l-3.2-2.8h-0.8l2.4,2.8h-4.8l-2.8-2.8h-1.6c0.3-0.8,0.5-1.6,0.5-2.4c0-0.1,0-0.3,0-0.4l0-0.4l0-0.2l0-0.2l-0.1-0.4
		c-0.2-0.6-0.3-1.1-0.6-1.6c-0.3-0.5-0.6-1-1-1.4l-0.1-0.2l-0.2-0.1c-0.1-0.1-0.2-0.2-0.3-0.3c-0.2-0.2-0.5-0.3-0.7-0.5
		c-0.8-0.5-1.6-0.7-2.5-0.8c-0.2,0-0.5,0-0.8,0v0.4v0.2c1,0,2,0.3,2.9,0.9c0.2,0.1,0.4,0.3,0.6,0.4c0.1,0.1,0.2,0.2,0.3,0.3l0.1,0.1
		l0.1,0.1c0.3,0.4,0.6,0.8,0.8,1.2c0.2,0.4,0.4,0.9,0.5,1.4l0,0.4l0,0.2v0.2l0,0.4c0,0.1,0,0.2,0,0.4c-0.1,1-0.5,1.9-1,2.7l-0.7,1
		h3.4l1.5,1.5H21.5v-5.2H17L25.3,6.2z M18.9,24.6c-0.5,1.9-2.1,3.3-4.1,3.5c-0.1,0-0.3,0-0.5,0c-2.5,0-4.5-1.9-4.7-4.4
		c0-0.1,0-0.2,0-0.3c0-1.3,0.5-2.5,1.5-3.4c0.1-0.1,4.6-4.4,4.6-4.4h4.5V20L18.9,24.6z M61.2,43.9c-0.8,3.1-2.1,6.2-3.8,9.1l0,0
		c-0.1,0.2-0.2,0.3-0.3,0.5c-0.1,0.1-0.1,0.2-0.2,0.3c-0.1,0.1-0.2,0.3-0.3,0.4c-0.1,0.1-0.2,0.2-0.2,0.4c-0.1,0.1-0.2,0.3-0.2,0.4
		c-0.2,0.2-0.3,0.5-0.5,0.7c-0.1,0.1-0.1,0.2-0.2,0.3c-0.1,0.2-0.2,0.3-0.4,0.5c-0.1,0.1-0.1,0.2-0.2,0.3c-0.1,0.2-0.2,0.3-0.4,0.5
		c-0.1,0.1-0.1,0.2-0.2,0.3c-0.2,0.2-0.4,0.5-0.6,0.8c0,0,0,0,0,0c-0.2,0.2-0.4,0.5-0.6,0.7c-2.1,2.5-4.5,5-7.2,7.3
		c-2,1.7-4.2,3.4-6.6,4.9c-1.1,0.8-2.3,1.5-3.5,2.2l-1.5,0.9l0,0l0,0L33,73.6c-7.5-4.5-13.5-9.6-17.8-15.2c-0.1-0.2-0.2-0.3-0.4-0.5
		c-0.1-0.1-0.2-0.2-0.2-0.3c-0.1-0.2-0.3-0.4-0.4-0.6c-0.1-0.1-0.1-0.1-0.2-0.2c-0.2-0.2-0.3-0.5-0.5-0.7c0,0-0.1-0.1-0.1-0.1
		c-0.2-0.3-0.4-0.5-0.5-0.8c0,0,0,0,0,0c-2.3-3.6-4-7.3-5-11.1C6.6,39.3,6.5,34,7.4,28.8c0.3-1.7,0.7-3.2,1.1-4.5
		c0.1,0.9,0.5,1.8,1.1,2.6c-0.2,0.7-0.3,1.4-0.5,2.2c-0.2,1.2-0.4,2.5-0.5,3.7l8.3,3.9c0.1-0.2,0.3-0.4,0.5-0.6
		c0.1-0.1,0.3-0.3,0.4-0.4l-5-6.5c0.5,0.1,1,0.2,1.6,0.2c0.4,0,0.8,0,1.2-0.1l3.4,5.7c0.4-0.2,0.8-0.3,1.3-0.4L19.7,26
		c0.2-0.4,0.3-0.7,0.4-1.1l1.2-4l0-0.1h26.6l0.2-0.2c1-1.1,2.7-2.3,5.4-2.3c1.5,0,2.9,0.5,4.1,1.5c0.9,0.8,1.7,1.8,2.3,3
		c0.8,1.6,1.4,3.5,1.8,6C62.6,34,62.5,39.3,61.2,43.9z"/>
	<path d="M47.3,11.3c0.4,0,0.7-0.3,0.7-0.7s-0.3-0.7-0.7-0.7s-0.7,0.3-0.7,0.7C46.7,11,47,11.3,47.3,11.3z"/>
	<path d="M43.5,10.9C43.5,10.9,43.5,10.9,43.5,10.9c0-0.1,0.2-0.9,1-1.1V9.2h-1.7v1.7L43.5,10.9L43.5,10.9z"/>
	<path d="M60,29.1c-0.7-4.1-2.4-9.1-6.5-9.1c-2.9,0-4.2,1.7-4.7,2.5H34.1L24,35.7c0.1,0.1,0.2,0.2,0.4,0.4c0.2,0.2,0.4,0.5,0.5,0.7
		l7.2-3.3l-0.6,2.6L25.5,38c0.1,0.5,0.2,0.9,0.2,1.4c-0.2,0-0.4-0.1-0.6-0.2c-0.2-0.1-0.4-0.2-0.6-0.2c-0.1,0-0.2-0.1-0.3-0.1
		c-0.2-0.1-0.4-0.2-0.6-0.3c-0.4-0.2-0.9-0.3-1.5-0.4c-0.1,0-0.2,0-0.3,0c-0.1,0-0.3,0-0.4,0c-0.1,0-0.3,0-0.4,0c0,0,0,0-0.1,0
		c0,0,0,0-0.1,0c-0.1,0-0.3,0-0.4,0c-0.1,0-0.3,0-0.4,0c-0.1,0-0.2,0-0.3,0c-0.6,0.1-1.1,0.2-1.5,0.4c-0.2,0.1-0.4,0.2-0.6,0.3
		c-0.1,0-0.2,0.1-0.3,0.1c-0.2,0.1-0.4,0.2-0.6,0.2c-0.2,0.1-0.4,0.1-0.6,0.2c0-0.5,0.1-1,0.2-1.5l-7.8-2.6c0,0.9,0,1.8,0.1,2.7l0,0
		c0,0.1,0,0.2,0,0.3c0,0.2,0,0.4,0.1,0.6h0c0,0.1,0,0.3,0,0.4c0,0,0.1,0,0.1,0c0.1,0,0.2,0,0.3,0c0,0,0,0,0.1,0c0.1,0,0.2,0,0.2,0
		c0,0,0,0,0,0c0.2,0,0.4,0,0.5,0.1l0,0c0.6,0.1,1.1,0.3,1.6,0.6c0.8,0.4,1.6,0.8,3.3,0.8s2.5-0.4,3.3-0.8c0.2-0.1,0.5-0.2,0.7-0.3
		c0.5-0.2,1-0.3,1.7-0.3c0.1,0,0.1,0,0.2,0c0,0,0.1,0,0.1,0c0,0,0.1,0,0.1,0c0.1,0,0.2,0,0.2,0c0.7,0,1.2,0.2,1.6,0.3
		c0.3,0.1,0.5,0.2,0.8,0.3c0.8,0.4,1.6,0.8,3.3,0.8c1.6,0,2.5-0.4,3.3-0.8c0.2-0.1,0.4-0.2,0.5-0.2L30.5,41l1.2-0.2L31.4,42
		c-0.7,0.2-1.1,0.4-1.6,0.6c-0.7,0.3-1.4,0.7-2.8,0.7s-2.1-0.3-2.8-0.7c-0.8-0.4-1.6-0.8-3.2-0.8s-2.4,0.4-3.2,0.8
		c-0.7,0.3-1.4,0.7-2.8,0.7s-2.1-0.3-2.8-0.7c-0.5-0.2-0.9-0.5-1.6-0.6l0,0c0,0-0.1,0-0.1,0c-0.1,0-0.1,0-0.1,0c-0.1,0-0.1,0-0.2,0
		c0,0-0.1,0-0.1,0l0,0c-0.2,0-0.5,0-0.8-0.1c0.1,0.3,0.1,0.6,0.2,0.9c0.2,0,0.4,0,0.5,0c0.1,0,0.1,0,0.2,0c0,0,0.1,0,0.1,0
		c0.1,0,0.2,0,0.3,0.1c0,0,0,0,0,0c0.1,0,0.2,0,0.3,0.1c0.4,0.1,0.7,0.3,1,0.4c0.8,0.4,1.6,0.8,3.2,0.8s2.4-0.4,3.2-0.8
		c0.7-0.3,1.4-0.7,2.8-0.7s2.1,0.3,2.8,0.7c0.8,0.4,1.6,0.8,3.2,0.8s2.4-0.4,3.2-0.8c0.3-0.2,0.6-0.3,1-0.4l-0.6,2.6
		c-0.3,0.1-0.6,0.3-0.9,0.4c-0.7,0.3-1.4,0.7-2.7,0.7c-1.4,0-2-0.3-2.7-0.7c-0.8-0.4-1.6-0.8-3.3-0.8c-1.6,0-2.5,0.4-3.3,0.8
		c-0.7,0.3-1.4,0.7-2.7,0.7s-2-0.3-2.7-0.7c-0.2-0.1-0.4-0.2-0.6-0.3l0,0c0,0,0,0,0,0c0,0-0.1,0-0.1,0l0,0c-0.4-0.2-0.8-0.3-1.4-0.4
		c0.1,0.5,0.3,0.9,0.5,1.4l0,0c0.7,2,1.7,3.9,2.8,5.8c0.1,0.1,0.1,0.2,0.1,0.3c0.1,0.1,0.2,0.3,0.2,0.4c0.1,0.1,0.1,0.2,0.2,0.3
		c0.1,0.1,0.2,0.2,0.2,0.4c0.1,0.1,0.1,0.2,0.2,0.3c0.1,0.1,0.2,0.2,0.2,0.4s0.1,0.2,0.2,0.3s0.1,0.2,0.2,0.3
		c0.1,0.1,0.2,0.2,0.3,0.4c0.1,0.1,0.1,0.2,0.2,0.3c0.1,0.2,0.2,0.3,0.3,0.4c0.1,0.1,0.1,0.2,0.2,0.2c0.2,0.2,0.3,0.5,0.5,0.7
		C20.9,62.7,26.7,67.7,34,72l0.6,0.4l0.6-0.4c7.3-4.4,13.1-9.3,17.3-14.8c0,0,0,0,0,0c0.3-0.3,0.5-0.7,0.8-1c0,0,0.1-0.1,0.1-0.1
		c0.2-0.3,0.5-0.7,0.7-1c0,0,0-0.1,0.1-0.1c0.5-0.8,1-1.5,1.4-2.3c1.2-2,2.2-4.1,2.9-6.2l0,0c0.2-0.4,0.3-0.8,0.4-1.2
		c-0.5,0.1-1,0.2-1.4,0.4l0,0c0,0,0,0-0.1,0c0,0,0,0,0,0l0,0c-0.2,0.1-0.4,0.2-0.6,0.3c-0.7,0.3-1.4,0.7-2.7,0.7s-2-0.3-2.7-0.7
		c-0.8-0.4-1.6-0.8-3.3-0.8c-1.7,0-2.5,0.4-3.3,0.8c-0.7,0.3-1.4,0.7-2.7,0.7s-2-0.3-2.7-0.7c-0.3-0.1-0.6-0.3-0.9-0.4l-1.1-4.9
		l1.2,0.2l0,0l0,0L38,37.9l3.8-3.8l2.5,1.8l3.9-4l3.9,4l2.5-1.8l4.5,4.6l1.1,1.2c0-0.4,0.1-0.8,0.1-1.2l0,0c0-0.1,0-0.1,0-0.2
		c0-0.1,0-0.2,0-0.2l0,0C60.7,35.2,60.5,32.2,60,29.1z M52.6,29.6l0.1-0.2h1.4l0.4-1.4h0.2l0.4,1.4h1.4l0.1,0.2l-1.2,0.9l0.4,1.4
		L55.8,32l-1.2-0.9L53.5,32l-0.2-0.1l0.4-1.4L52.6,29.6z M49.5,29.5l-0.2,0.1l-1.2-0.9L47,29.6l-0.2-0.1l0.4-1.4l-1.2-0.9l0.1-0.2
		h1.4l0.4-1.4h0.2l0.4,1.4h1.4l0.1,0.2l-1.2,0.9L49.5,29.5z M43,31.9L42.8,32l-1.2-0.9L40.5,32l-0.2-0.1l0.4-1.4l-1.2-0.9l0.1-0.2
		h1.4l0.4-1.4h0.2l0.4,1.4h1.4l0.1,0.2l-1.2,0.9L43,31.9z M37.8,48l-1.4-0.3l0,0l2,9.3l0,0l0,0l0,0l-3.7-1.5L30.8,57l0,0l0,0
		l1.9-9.3L31.3,48l0,0l0,0l1.9-8.9l0,0l-1.1,0.2L34.4,27h0.2L37,39.3l-1.1-0.2l0,0L37.8,48z M35.3,58.3l0.3,8.8h-2.1l0.3-8.8l0-1.4
		l0.7-0.3l0.7,0.3L35.3,58.3z M32.7,60.8l0,0.6c-1,0-1.4,0.2-2,0.5c-0.9,0.4-1.9,0.9-3.7,0.9c-1.8,0-2.8-0.4-3.6-0.8
		c0,0-0.1,0-0.1-0.1c-0.1-0.1-0.3-0.1-0.4-0.2c0,0,0,0-0.1,0c-0.2-0.1-0.3-0.1-0.5-0.2l0.5-0.4l0,0l0,0L23,61
		c0.3,0.1,0.5,0.2,0.8,0.3c0.1,0,0.2,0.1,0.3,0.2c0.7,0.3,1.5,0.6,2.9,0.6c1.6,0,2.4-0.4,3.2-0.8c0.7-0.3,1.4-0.7,2.6-0.7L32.7,60.8
		z M45,61.5c0.1,0,0.2-0.1,0.3-0.2c0.2-0.1,0.5-0.2,0.8-0.3l0.7,0.6c-0.2,0.1-0.4,0.1-0.6,0.2c0,0,0,0,0,0c-0.1,0-0.2,0.1-0.3,0.2
		c0,0-0.1,0-0.2,0.1c-0.8,0.4-1.8,0.8-3.6,0.8c-1.9,0-2.9-0.5-3.7-0.9c-0.6-0.3-1.1-0.5-2-0.5l0-0.6l0-0.2c1.3,0,2,0.3,2.7,0.7
		c0.8,0.4,1.6,0.8,3.2,0.8C43.5,62.1,44.3,61.8,45,61.5z M30.2,47.2C30.2,47.2,30.2,47.2,30.2,47.2l-0.5,2.5l0,0v0l1.5-0.3L29,59.2
		l4-2l-0.1,1.3l-0.1,1.2c-1.5,0-2.3,0.4-3.1,0.8c-0.7,0.3-1.4,0.7-2.8,0.7c-1.3,0-2-0.3-2.6-0.6c-0.1,0-0.1-0.1-0.2-0.1
		c-0.3-0.1-0.6-0.3-0.9-0.4V47.9l0,0l-0.8,0.6v11.8L21.5,61l0,0v-3.9v-0.6v-8.4l1.6-1.2c0,0,0,0,0.1,0c0.1,0,0.2,0.1,0.3,0.1
		c0,0,0.1,0,0.1,0.1c0.2,0.1,0.5,0.2,0.8,0.3c0,0,0,0,0,0c0.6,0.2,1.4,0.4,2.5,0.4C28.6,48,29.4,47.5,30.2,47.2z M38.9,47.2
		c0.8,0.4,1.6,0.8,3.3,0.8c1.1,0,1.9-0.2,2.5-0.4c0,0,0,0,0,0c0.3-0.1,0.5-0.2,0.8-0.3c0,0,0,0,0,0c0.1-0.1,0.3-0.1,0.4-0.2
		c0,0,0,0,0.1,0l1.6,1.2V61l0,0l-0.8-0.7V48.5l-0.9-0.7v12.2c-0.3,0.1-0.6,0.3-0.9,0.4c-0.1,0-0.1,0.1-0.2,0.1
		c-0.7,0.3-1.3,0.6-2.6,0.6c-1.4,0-2.1-0.3-2.8-0.7c-0.8-0.4-1.6-0.8-3.1-0.8l-0.1-1.2l-0.1-1.3l4,2L39.8,58l-1.8-8.6l1.5,0.3
		L38.9,47.2C38.9,47.2,38.9,47.2,38.9,47.2z"/>
	<path d="M44.7,50.9c0.1-0.1,0.3-0.1,0.4-0.2v-1c0,0,0,0-0.1,0c-0.1,0-0.2,0.1-0.3,0.2c-0.6,0.3-1.3,0.5-2.5,0.5
		c-1.3,0-2-0.3-2.7-0.6v1c0.7,0.3,1.4,0.5,2.7,0.5C43.3,51.3,44,51.1,44.7,50.9z"/>
	<path d="M44.7,53.5C44,53.8,43.4,54,42.2,54c-0.9,0-1.5-0.1-2-0.3v0.9c0.5,0.2,1.2,0.3,2,0.3c1.1,0,1.9-0.2,2.5-0.4
		c0.1-0.1,0.3-0.1,0.4-0.2v-1c0,0,0,0-0.1,0C44.9,53.4,44.8,53.5,44.7,53.5z"/>
	<path d="M44.7,57.1c-0.6,0.3-1.3,0.5-2.5,0.5c-0.5,0-0.8,0-1.2-0.1v0.9c0.3,0,0.7,0.1,1.2,0.1c1.1,0,1.9-0.2,2.5-0.4
		c0.1-0.1,0.3-0.1,0.4-0.2v-1c0,0,0,0-0.1,0C44.9,57,44.8,57,44.7,57.1z"/>
	<polygon points="13.1,24.6 13.6,24.9 18.8,17.9 18.8,17 18,17 	"/>
	<polygon points="42.4,42.4 42.4,39.3 41.1,39.3 41.1,40.1 41.5,40.1 41.5,42.4 	"/>
	<path d="M44.8,41.5c0,0.6,0.6,0.9,1.2,0.9s1.2-0.3,1.2-0.9c0-0.3-0.2-0.6-0.5-0.8c0.2-0.1,0.4-0.4,0.4-0.7c0-0.6-0.5-0.9-1-0.9
		c-0.5,0-1,0.3-1,0.9c0,0.3,0.2,0.5,0.4,0.7C45,40.9,44.8,41.2,44.8,41.5z M46,40.4c-0.2,0-0.3-0.1-0.3-0.3s0.1-0.3,0.3-0.3
		c0.2,0,0.3,0.1,0.3,0.3S46.1,40.4,46,40.4z M46,41.8c-0.2,0-0.3-0.1-0.3-0.3s0.1-0.3,0.3-0.3c0.2,0,0.3,0.1,0.3,0.3
		C46.3,41.6,46.2,41.8,46,41.8z"/>
	<path d="M50.4,39.3l-0.7,0.8c-0.2,0.3-0.5,0.7-0.5,1.2c0,0.3,0.2,0.6,0.4,0.8c0.2,0.2,0.5,0.3,0.9,0.3c0.6,0,1.3-0.4,1.3-1.2
		c0-0.5-0.3-1.1-1-1.1c-0.1,0-0.2,0-0.3,0l0.8-1L50.4,39.3L50.4,39.3z M50.5,40.9c0.2,0,0.4,0.2,0.4,0.4s-0.2,0.4-0.4,0.4
		s-0.4-0.2-0.4-0.4C50.1,41.1,50.3,40.9,50.5,40.9z"/>
	<path d="M53.8,41.5c0,0.6,0.6,0.9,1.2,0.9s1.2-0.3,1.2-0.9c0-0.3-0.2-0.6-0.5-0.8c0.2-0.1,0.4-0.4,0.4-0.7c0-0.6-0.5-0.9-1-0.9
		c-0.5,0-1,0.3-1,0.9c0,0.3,0.2,0.5,0.4,0.7C54,40.9,53.8,41.2,53.8,41.5z M55,40.4c-0.2,0-0.3-0.1-0.3-0.3s0.1-0.3,0.3-0.3
		c0.2,0,0.3,0.1,0.3,0.3S55.2,40.4,55,40.4z M55,41.8c-0.2,0-0.3-0.1-0.3-0.3s0.1-0.3,0.3-0.3c0.2,0,0.3,0.1,0.3,0.3
		S55.2,41.8,55,41.8z"/>
</g>
<g>
	<path class="st1" d="M70.6,30.4c0-6.9,3.8-11.2,10.4-11.2c6.6,0,10.4,4.3,10.4,11.2S87.6,41.6,81,41.6
		C74.4,41.6,70.6,37.3,70.6,30.4z M85.9,30.4c0-6.8-1.5-9.4-4.8-9.4c-3.4,0-4.9,2.6-4.9,9.5c0,6.8,1.5,9.5,4.9,9.5
		C84.4,39.8,85.9,37.1,85.9,30.4z"/>
	<path class="st1" d="M101.8,40l-0.5,1.1h-9v-1l1.5-0.7V29.4L92.3,27v-0.4l5.6-1.9h0.8l-0.1,3.8h0.2c0.7-1.9,2.2-3.8,4.6-3.8
		c2,0,3.1,1.1,3.1,3c0,1.7-1.1,2.7-2.6,2.7c-1.6,0-2.6-1.1-2.6-2.6c-0.9,0.4-1.8,1.3-2.7,2.4v9.2L101.8,40z"/>
	<path class="st1" d="M115.5,38.5c1.7,0,2.6-0.4,4-1.4l0.7,0.8c-1.2,2.7-3.4,3.7-6.6,3.7c-4.2,0-7.5-2.7-7.5-8.2
		c0-5.6,3.8-8.6,8.2-8.6c3.6,0,6.1,2.1,6.1,6c0,0.6,0,1.4-0.2,2.1h-9.4C110.9,36.2,112.3,38.5,115.5,38.5z M110.9,31.1h5.2
		c0.1-0.3,0.1-0.8,0.1-1.4c0-1.7-0.5-3.3-2.2-3.3C112.3,26.4,111.2,28,110.9,31.1z"/>
	<path class="st1" d="M132.2,38c3.5,0,5.7,1.7,5.7,5.2c0,4.5-4.5,6.2-9.3,6.2c-4.5,0-7.8-1-7.8-3.9c0-2.1,1.7-3.1,4.2-3.4V42
		c-2.1-0.3-3.3-1.5-3.3-3.4c0-1.9,1.4-3.1,3.5-3.5c-2.1-0.7-3.4-2.2-3.4-4.6c0-3.2,2.4-5.8,7.1-5.8c1.9,0,4.2,0.4,5.9,1.2
		c-0.1-0.2-0.2-0.5-0.2-0.9c0-1.2,0.9-1.9,2-1.9c1.2,0,2,0.8,2,2.1c0,1.4-0.9,2.2-2.2,2.2c-1,0-1.9-0.4-2.9-0.8V27
		c1.3,0.6,2.2,1.9,2.2,3.5c0,3.5-3.5,5.1-6.8,5.1c-0.8,0-1.6-0.1-2.2-0.3c-0.8,0.3-1.4,0.7-1.4,1.5c0,0.7,0.4,1.1,1.3,1.1
		C126.5,38,132.2,38,132.2,38z M124.9,44.9c0,2,1.4,2.9,4,2.9c2.9,0,5.1-0.8,5.1-3.1c0-1.4-0.7-2.2-2.9-2.2h-4.7
		C125.4,42.9,124.9,43.7,124.9,44.9z M128.7,26.4c-1.9,0-2.2,1.4-2.2,3.8c0,2.4,0.3,3.8,2.2,3.8c1.9,0,2.2-1.4,2.2-3.8
		C130.9,27.8,130.6,26.4,128.7,26.4z"/>
	<path class="st1" d="M145.4,41.6c-5,0-8.3-2.8-8.3-8.4c0-5.6,3.3-8.4,8.3-8.4c5,0,8.3,2.8,8.3,8.4S150.4,41.6,145.4,41.6z
		 M145.4,39.9c2.5,0,3.1-2.4,3.1-6.7s-0.7-6.7-3.1-6.7s-3.1,2.4-3.1,6.7S142.9,39.9,145.4,39.9z"/>
	<path class="st1" d="M173,40.1l-0.5,1.1h-8.1v-1l1.5-0.7v-8c0-2.4-1.2-3.2-2.6-3.2c-1.3,0-2.2,0.6-2.9,1.3v10l2.2,0.7l-0.5,1.1
		h-8.1v-1l1.5-0.7V29.4l-1.6-2.4v-0.4l5.6-1.8h0.8l-0.1,3.2h0.1c1.3-2.1,3.2-3.2,5.6-3.2c2.7,0,4.8,1.9,4.8,5.6v9.1L173,40.1z"/>
	<path class="st1" d="M187.9,36.8c0-2-1-3-3.5-3.9l-2.7-1.1c-2.7-1.1-4.3-3-4.3-6.4c0-4.4,3.4-6.3,7-6.3c2,0,3.5,0.4,4.7,0.8
		l1.8-0.8l0.3,6.1l-1,0.2l-1.8-2.3c-1.1-1.5-2.2-2.4-4.2-2.4c-1.7,0-2.9,1.1-2.9,2.8c0,1.7,0.8,2.7,3,3.6l2.8,1.1
		c3.5,1.4,5,3.4,5,6.8c0,4.4-3.4,6.5-7.3,6.5c-2.7,0-4.1-0.7-5.1-1.2l-2,1.2l-0.6-7l1.1-0.2l1.8,2.6c1.2,1.9,2.6,2.9,4.7,2.9
		C186.7,39.8,187.9,38.7,187.9,36.8z"/>
	<path class="st1" d="M192.5,25.8l5.9-5.1h1.1v4.4h4.9l-0.3,1.9h-4.6v8.7c0,2.1,0.8,3,2.3,3c1,0,1.7-0.2,2.7-0.8l0.4,0.9
		c-1.1,1.7-3,2.8-5.4,2.8c-2.9,0-4.9-1.4-4.9-5.2V27h-2.2L192.5,25.8L192.5,25.8z"/>
	<path class="st1" d="M218.9,37.7c0,1.7,0.6,2,2.3,1.8l0.1,0.7c-0.9,0.9-2.1,1.3-3.9,1.3c-1.6,0-2.9-0.7-3.2-2.4l-0.1,0
		c-0.8,1.7-2.5,2.4-4.5,2.4c-2.5,0-4.5-1.4-4.5-4.4c0-3.2,2.6-4.8,6.7-4.8c0.8,0,1.6,0.2,2.2,0.3v-1.4c0-2.1-1.4-3.2-3.5-3.2
		c-1.6,0-2.8,0.3-4.4,1.1l-0.4-1.1c1.6-2.1,4.1-3.3,7.2-3.3c3.1,0,6.1,1.4,6.1,5.9L218.9,37.7L218.9,37.7z M213.2,34
		c-2.2,0-3.4,0.5-3.4,2.5c0,1.4,0.8,2.3,2.1,2.3c0.8,0,1.5-0.2,2.1-0.8v-4H213.2z"/>
	<path class="st1" d="M219.5,25.8l5.9-5.1h1.1v4.4h4.9l-0.3,1.9h-4.6v8.7c0,2.1,0.8,3,2.3,3c1,0,1.7-0.2,2.7-0.8l0.4,0.9
		c-1.1,1.7-3,2.8-5.4,2.8c-2.9,0-4.9-1.4-4.9-5.2V27h-2.2L219.5,25.8L219.5,25.8z"/>
	<path class="st1" d="M241,38.5c1.7,0,2.6-0.4,4-1.4l0.7,0.8c-1.2,2.7-3.4,3.7-6.6,3.7c-4.2,0-7.5-2.7-7.5-8.2
		c0-5.6,3.8-8.6,8.2-8.6c3.6,0,6.1,2.1,6.1,6c0,0.6,0,1.4-0.2,2.1h-9.4C236.4,36.2,237.9,38.5,241,38.5z M236.4,31.1h5.2
		c0.1-0.3,0.1-0.8,0.1-1.4c0-1.7-0.5-3.3-2.2-3.3C237.9,26.4,236.7,28,236.4,31.1z"/>
</g>
</svg>
